<?xml version="1.0" encoding="UTF-8"?>
<svg version="1.1" xmlns="http://www.w3.org/2000/svg" width="24" height="24">
<path d="M0 0 C3.375 1.5 3.375 1.5 6 3 C6.08160748 4.89510699 6.13946459 6.79124504 6.1875 8.6875 C6.23970703 10.27111328 6.23970703 10.27111328 6.29296875 11.88671875 C5.96063055 15.41836599 5.11678496 17.18255429 3 20 C-0.51824511 22.34549674 -1.85775694 22.57991403 -6 22 C-8.57285724 19.827365 -10.48996919 18.02006162 -12 15 C-12.07065617 12.95944995 -12.08421976 10.91665743 -12.0625 8.875 C-12.05347656 7.77929688 -12.04445313 6.68359375 -12.03515625 5.5546875 C-12.02355469 4.71164063 -12.01195312 3.86859375 -12 3 C-7.78672212 0.59241264 -4.8641549 -0.60801936 0 0 Z M-10 6 C-9.61271765 11.71241466 -9.12989477 14.73688282 -5 19 C-2.12503635 18.68919312 -0.43410388 18.38759275 1.75 16.4375 C3.52724802 12.97186635 3.67708592 9.874969 4 6 C-2.31942121 2.70291067 -3.68057879 2.70291067 -10 6 Z " fill="#208DE6" transform="translate(15,1)"/>
</svg>
